<?xml version="1.0" encoding="UTF-8"?>
<svg xmlns="http://www.w3.org/2000/svg" viewBox="0 0 512 512" width="512" height="512">
  <defs>
    <linearGradient id="bg" x1="0%" y1="0%" x2="100%" y2="100%">
      <stop offset="0%" stop-color="#1A2744"/>
      <stop offset="100%" stop-color="#2D5A8E"/>
    </linearGradient>
    <radialGradient id="glow" cx="52%" cy="57%" r="42%">
      <stop offset="0%" stop-color="#3D70B8" stop-opacity="0.4"/>
      <stop offset="100%" stop-color="#1A2744" stop-opacity="0"/>
    </radialGradient>
  </defs>

  <!-- Background -->
  <rect width="512" height="512" fill="url(#bg)"/>
  <rect width="512" height="512" fill="url(#glow)"/>

  <!-- Branch -->
  <path d="M 115 358 Q 256 351 395 360" stroke="#7D5A3C" stroke-width="13" fill="none" stroke-linecap="round"/>
  <path d="M 115 358 Q 256 354 395 360" stroke="#A07850" stroke-width="4"  fill="none" stroke-linecap="round" opacity="0.5"/>

  <!-- Bird tail -->
  <path d="M 192,314 C 168,308 146,322 138,350 C 153,332 170,320 190,316 Z" fill="white"/>

  <!-- Bird body -->
  <ellipse cx="265" cy="305" rx="90" ry="56" fill="white"/>

  <!-- Wing shading -->
  <ellipse cx="262" cy="296" rx="68" ry="34" fill="#D4E2F0" opacity="0.75"/>

  <!-- Neck bridge -->
  <ellipse cx="293" cy="276" rx="32" ry="24" fill="white"/>

  <!-- Bird head -->
  <circle cx="310" cy="248" r="46" fill="white"/>

  <!-- Beak -->
  <polygon points="349,242 375,249 349,256" fill="#D4870E"/>

  <!-- Eye -->
  <circle cx="330" cy="241" r="8.5" fill="#1A2744"/>
  <circle cx="332" cy="238.5" r="3" fill="white"/>

  <!-- Legs -->
  <line x1="240" y1="358" x2="232" y2="374" stroke="#B8780C" stroke-width="4.5" stroke-linecap="round"/>
  <line x1="280" y1="358" x2="276" y2="374" stroke="#B8780C" stroke-width="4.5" stroke-linecap="round"/>

  <!-- Left foot toes -->
  <line x1="232" y1="374" x2="218" y2="371" stroke="#B8780C" stroke-width="3.5" stroke-linecap="round"/>
  <line x1="232" y1="374" x2="230" y2="385" stroke="#B8780C" stroke-width="3.5" stroke-linecap="round"/>
  <line x1="232" y1="374" x2="243" y2="383" stroke="#B8780C" stroke-width="3.5" stroke-linecap="round"/>

  <!-- Right foot toes -->
  <line x1="276" y1="374" x2="262" y2="371" stroke="#B8780C" stroke-width="3.5" stroke-linecap="round"/>
  <line x1="276" y1="374" x2="274" y2="385" stroke="#B8780C" stroke-width="3.5" stroke-linecap="round"/>
  <line x1="276" y1="374" x2="287" y2="383" stroke="#B8780C" stroke-width="3.5" stroke-linecap="round"/>

  <!-- Cherry blossom 1 -->
  <g transform="translate(105, 112)">
    <ellipse cx="0" cy="-14" rx="7" ry="11" fill="#FFB7C5"/>
    <ellipse cx="0" cy="-14" rx="7" ry="11" fill="#FFB7C5" transform="rotate(72)"/>
    <ellipse cx="0" cy="-14" rx="7" ry="11" fill="#FFB7C5" transform="rotate(144)"/>
    <ellipse cx="0" cy="-14" rx="7" ry="11" fill="#FFB7C5" transform="rotate(216)"/>
    <ellipse cx="0" cy="-14" rx="7" ry="11" fill="#FFB7C5" transform="rotate(288)"/>
    <circle cx="0" cy="0" r="5" fill="#FFF0F3"/>
    <circle cx="0" cy="0" r="2.5" fill="#FFD0DB"/>
  </g>

  <!-- Cherry blossom 2 (smaller) -->
  <g transform="translate(152, 80) scale(0.65)">
    <ellipse cx="0" cy="-14" rx="7" ry="11" fill="#FFC4D0"/>
    <ellipse cx="0" cy="-14" rx="7" ry="11" fill="#FFC4D0" transform="rotate(72)"/>
    <ellipse cx="0" cy="-14" rx="7" ry="11" fill="#FFC4D0" transform="rotate(144)"/>
    <ellipse cx="0" cy="-14" rx="7" ry="11" fill="#FFC4D0" transform="rotate(216)"/>
    <ellipse cx="0" cy="-14" rx="7" ry="11" fill="#FFC4D0" transform="rotate(288)"/>
    <circle cx="0" cy="0" r="5" fill="#FFF0F3"/>
  </g>

  <!-- Scattered petals -->
  <ellipse cx="68"  cy="150" rx="5"   ry="3"   fill="#FFB7C5" opacity="0.55" transform="rotate(-25, 68,  150)"/>
  <ellipse cx="174" cy="58"  rx="4"   ry="2.5" fill="#FFB7C5" opacity="0.5"  transform="rotate( 15, 174, 58)"/>
  <ellipse cx="182" cy="148" rx="4"   ry="2.5" fill="#FFC4D0" opacity="0.45" transform="rotate(-40, 182, 148)"/>
  <ellipse cx="52"  cy="190" rx="3.5" ry="2"   fill="#FFB7C5" opacity="0.4"  transform="rotate( 10, 52,  190)"/>

</svg>
